<?xml version="1.0" encoding="UTF-8"?>
<svg version="1.1" xmlns="http://www.w3.org/2000/svg" width="500" height="500">
<path d="M0 0 C165 0 330 0 500 0 C500 165 500 330 500 500 C335 500 170 500 0 500 C0 335 0 170 0 0 Z " fill="#000000" transform="translate(0,0)"/>
<path d="M0 0 C4.39690338 -0.13636158 8.78947764 -0.23479642 13.1875 -0.3125 C15.02731445 -0.3753418 15.02731445 -0.3753418 16.90429688 -0.43945312 C27.5668071 -0.58011949 37.03336338 1.5305091 45.5 8.3125 C54.78387361 17.42046864 57.2918817 28.55714139 57.41540527 41.31199646 C57.41238403 42.39368607 57.40936279 43.47537567 57.40625 44.58984375 C57.41708618 45.73739639 57.42792236 46.88494904 57.43908691 48.067276 C57.48458957 52.9241258 57.49648988 57.78091453 57.51123047 62.63793945 C57.52689924 66.20543467 57.55986616 69.77248265 57.59375 73.33984375 C57.59072876 74.43570297 57.58770752 75.53156219 57.58459473 76.66062927 C57.59470581 77.68261917 57.60481689 78.70460907 57.61523438 79.75756836 C57.61728882 80.65181015 57.61934326 81.54605194 57.62145996 82.46739197 C58.17481208 86.16957369 59.68586829 89.01741528 62.703125 91.2734375 C66.0107951 92.31974131 69.31071243 92.46839886 72.75 92.625 C76.33875 92.810625 76.33875 92.810625 80 93 C80 101.58 80 110.16 80 119 C72.875 119.25 72.875 119.25 70.66748047 119.29785156 C65.72063472 119.55277445 62.81892772 120.91235631 59 124 C57.76763981 126.46472038 57.86890798 128.09786685 57.8581543 130.85424805 C57.85111984 131.86678146 57.84408539 132.87931488 57.83683777 133.92253113 C57.83267349 135.02446304 57.82850922 136.12639496 57.82421875 137.26171875 C57.80098946 139.60222223 57.77687095 141.94271702 57.75195312 144.28320312 C57.717079 147.96693466 57.68763678 151.6503533 57.67407227 155.33422852 C57.52140544 190.0177822 57.52140544 190.0177822 46.8125 202.5625 C36.4361236 211.55535954 25.70800464 212.31444691 12.4375 212.125 C8.333125 212.08375 4.22875 212.0425 0 212 C0 203.75 0 195.5 0 187 C2.18625 186.896875 4.3725 186.79375 6.625 186.6875 C11.81605733 186.44263881 15.63428907 185.93340748 20 183 C23.63857425 177.59991949 23.42537677 172.50261548 23.40625 166.23046875 C23.41708618 165.19489334 23.42792236 164.15931793 23.43908691 163.09236145 C23.47326632 159.79067731 23.4889192 156.48933753 23.5 153.1875 C23.51463587 148.84732844 23.54846263 144.50791696 23.59375 140.16796875 C23.59072876 139.18330124 23.58770752 138.19863373 23.58459473 137.18412781 C23.69151537 127.23395818 25.92742422 120.23900899 32.79296875 112.953125 C35.96828194 110.14311333 39.08872245 108.60641756 43 107 C43 106.34 43 105.68 43 105 C42.43152344 104.731875 41.86304688 104.46375 41.27734375 104.1875 C34.80428175 100.90233999 28.92572402 96.97124004 26.20954895 89.9594574 C24.1006852 83.43565355 23.58598304 77.56151638 23.62890625 70.734375 C23.61154019 68.60676909 23.59395566 66.47916496 23.57617188 64.3515625 C23.56607272 61.03805441 23.56251297 57.72465573 23.56420898 54.41113281 C23.56063945 51.18522153 23.53332027 47.96013862 23.50390625 44.734375 C23.51208878 43.74677185 23.5202713 42.7591687 23.52870178 41.74163818 C23.4650866 35.85737775 22.92286177 32.48158613 19 28 C15.08946451 25.72163009 11.15060528 25.62526759 6.6875 25.375 C3.3771875 25.189375 3.3771875 25.189375 0 25 C0 16.75 0 8.5 0 0 Z " fill="#C5F616" transform="translate(410,159)"/>
<path d="M0 0 C1.25039062 0.00322266 2.50078125 0.00644531 3.7890625 0.00976562 C5.74199219 0.02233398 5.74199219 0.02233398 7.734375 0.03515625 C9.05179687 0.03966797 10.36921875 0.04417969 11.7265625 0.04882812 C14.97918604 0.06061299 18.23178624 0.07854835 21.484375 0.09765625 C21.484375 8.34765625 21.484375 16.59765625 21.484375 25.09765625 C19.48375 25.20078125 17.483125 25.30390625 15.421875 25.41015625 C6.68481528 26.02041732 6.68481528 26.02041732 -0.17211914 31.03076172 C-2.18254957 35.62008156 -1.91689764 39.96107965 -1.88671875 44.91796875 C-1.90411161 47.08463691 -1.92169587 49.25130354 -1.93945312 51.41796875 C-1.94948895 54.81448327 -1.95313094 58.2108932 -1.95141602 61.60742188 C-1.9550144 64.89874829 -1.98247191 68.18928453 -2.01171875 71.48046875 C-2.00353622 72.47982452 -1.9953537 73.4791803 -1.98692322 74.50881958 C-2.07799866 83.25782038 -3.77860937 91.53502923 -9.890625 98.09765625 C-13.66917219 101.47888839 -17.30772701 104.09765625 -22.515625 104.09765625 C-22.515625 105.41765625 -22.515625 106.73765625 -22.515625 108.09765625 C-21.814375 108.18015625 -21.113125 108.26265625 -20.390625 108.34765625 C-13.82627921 110.06009428 -9.2583031 114.64709993 -5.515625 120.09765625 C-2.465308 126.61131592 -2.08704803 132.91985296 -2.109375 140.01171875 C-2.09853882 141.02559662 -2.08770264 142.03947449 -2.07653809 143.08407593 C-2.03100281 147.38380615 -2.01920411 151.68347047 -2.00439453 155.98339844 C-1.98866 159.13888705 -1.95566257 162.29388003 -1.921875 165.44921875 C-1.92489624 166.41292389 -1.92791748 167.37662903 -1.93103027 168.36953735 C-1.86808422 174.04339668 -1.25002439 178.08893891 1.484375 183.09765625 C5.34772854 186.4257672 9.38628914 186.61941392 14.296875 186.78515625 C16.66875 186.88828125 19.040625 186.99140625 21.484375 187.09765625 C21.484375 195.34765625 21.484375 203.59765625 21.484375 212.09765625 C17.02566779 212.1791076 12.56847118 212.23838251 8.109375 212.28515625 C6.85769531 212.31029297 5.60601562 212.33542969 4.31640625 212.36132812 C-8.42535927 212.46139435 -16.83148867 210.19480994 -26.203125 201.5390625 C-34.11017556 193.29596229 -35.0973014 182.90813796 -35.01953125 171.984375 C-35.02895248 170.77119095 -35.03837372 169.5580069 -35.04808044 168.30805969 C-35.07654733 164.46691635 -35.07981409 160.62639616 -35.078125 156.78515625 C-35.08173627 152.92615559 -35.09127127 149.06760165 -35.11888123 145.20869446 C-35.13563454 142.8169775 -35.13857316 140.42511287 -35.12586975 138.03337097 C-35.13855899 130.1300978 -35.13855899 130.1300978 -38.515625 123.09765625 C-44.84046998 119.19509232 -49.54839754 119.76159187 -57.515625 119.09765625 C-57.515625 110.51765625 -57.515625 101.93765625 -57.515625 93.09765625 C-49.765625 92.28515625 -49.765625 92.28515625 -47.34472656 92.05151367 C-43.27317307 91.58231072 -40.29964167 91.2127817 -37.515625 88.09765625 C-34.8113965 82.23707273 -35.23665136 76.18389941 -35.2421875 69.8671875 C-35.22189185 67.430334 -35.20104095 64.99348508 -35.1796875 62.55664062 C-35.15714276 58.73653295 -35.14063491 54.91660658 -35.13476562 51.09643555 C-35.1251874 47.39469041 -35.09133958 43.69375028 -35.0546875 39.9921875 C-35.05973297 38.8647261 -35.06477844 37.73726471 -35.06997681 36.57563782 C-34.93084262 25.2363076 -31.99814125 16.49718476 -24.09375 8.265625 C-17.0777171 2.36577915 -9.00689508 -0.04094043 0 0 Z " fill="#C6F816" transform="translate(68.515625,158.90234375)"/>
<path d="M0 0 C3.10291391 1.74383762 4.49267699 4.65420225 6.203125 7.66015625 C6.56664062 8.27568359 6.93015625 8.89121094 7.3046875 9.52539062 C8.1987338 11.04291658 9.07744128 12.56946064 9.953125 14.09765625 C7.21962535 16.98196967 4.45328813 19.22432027 1.140625 21.41015625 C-7.4703109 27.37449568 -14.7912133 34.46725057 -17.046875 45.09765625 C-16.015625 45.20078125 -14.984375 45.30390625 -13.921875 45.41015625 C-6.859401 46.66317583 -3.23072449 49.28675419 0.953125 55.09765625 C3.25140195 59.2564431 3.62022567 63.43629033 2.953125 68.09765625 C1.08489944 74.45599211 -1.56621989 78.40660281 -7.046875 82.09765625 C-13.06805358 84.97163057 -19.67887166 84.98089222 -26.171875 83.66796875 C-31.80195216 81.63209264 -35.33092436 77.28442172 -38.0859375 72.16796875 C-42.84150612 60.39015862 -40.30436392 46.61051091 -36.046875 35.09765625 C-30.87245124 23.91768368 -14.28624143 0.68159549 0 0 Z " fill="#C4F616" transform="translate(205.046875,161.90234375)"/>
<path d="M0 0 C5.6236427 3.25640091 9.86410231 8.18107123 11.6875 14.4375 C11.97497704 17.87859266 11.96640059 21.29878734 11.9375 24.75 C11.94910156 26.11801758 11.94910156 26.11801758 11.9609375 27.51367188 C11.91889081 42.17745347 6.48647768 54.62926432 -3.3125 65.4375 C-4.22128906 66.46810547 -4.22128906 66.46810547 -5.1484375 67.51953125 C-9.06660688 71.71048457 -13.38083143 75.09437183 -18.0625 78.375 C-18.61768311 78.76502197 -19.17286621 79.15504395 -19.74487305 79.55688477 C-22.53386047 81.44924626 -24.95172726 82.92359543 -28.3125 83.4375 C-29.81804634 81.14930854 -31.31707043 78.85728831 -32.8125 76.5625 C-33.24175781 75.91152344 -33.67101562 75.26054687 -34.11328125 74.58984375 C-37.3125 69.6640625 -37.3125 69.6640625 -37.3125 67.4375 C-35.69074382 66.30763678 -34.01203157 65.25909687 -32.3125 64.25 C-21.61029891 57.57314541 -13.63521987 50.0638355 -10.3125 37.4375 C-11.323125 37.52 -12.33375 37.6025 -13.375 37.6875 C-19.22234934 37.31623972 -22.63203487 35.20880108 -26.625 31 C-30.40535706 25.2594578 -31.12157915 20.2316903 -30.3125 13.4375 C-28.44821905 6.74732722 -24.16546275 2.91081876 -18.3125 -0.5625 C-12.42614627 -2.52461791 -5.71014423 -2.579486 0 0 Z " fill="#C4F616" transform="translate(378.3125,162.5625)"/>
<path d="M0 0 C2.59778161 3.097355 4.99572953 6.31455642 7.3125 9.625 C7.84488281 10.38039062 8.37726563 11.13578125 8.92578125 11.9140625 C9.28027344 12.60242188 9.63476562 13.29078125 10 14 C8.77746756 17.66759732 7.68362496 18.11912638 4.5 20.1875 C-5.52333423 27.01311816 -13.68862052 33.95862007 -17 46 C-15.80375 46.0825 -14.6075 46.165 -13.375 46.25 C-7.6208715 46.99083136 -3.94084072 49.75152009 -0.1875 54.0625 C3.7322292 59.32613636 3.74688796 64.64296499 3 71 C0.87457552 77.05562751 -2.20670425 81.04172132 -8 84 C-14.01475472 85.91318996 -21.54708593 86.25757624 -27.48828125 84.09375 C-33.40466046 80.61745939 -36.97642973 75.52515669 -39 69 C-40.12674221 57.5378019 -40.16697186 45.47317351 -35 35 C-34.54882812 34.03449219 -34.09765625 33.06898438 -33.6328125 32.07421875 C-26.20127745 17.82120004 -13.55833009 8.06816121 0 0 Z " fill="#C5F616" transform="translate(149,161)"/>
<path d="M0 0 C5.59544698 4.07926135 9.46702871 9.49795589 10.81640625 16.32421875 C11.17767716 20.69387647 11.08686866 24.95089268 10.81640625 29.32421875 C10.72939453 30.78021484 10.72939453 30.78021484 10.640625 32.265625 C9.10030245 45.90583072 1.60378296 58.00832697 -8.18359375 67.32421875 C-9.40949219 68.50951172 -9.40949219 68.50951172 -10.66015625 69.71875 C-24.16452244 82.32421875 -24.16452244 82.32421875 -30.18359375 82.32421875 C-31.8958804 80.05891379 -33.39259735 77.8591443 -34.87109375 75.44921875 C-35.28681641 74.79824219 -35.70253906 74.14726562 -36.13085938 73.4765625 C-39.18359375 68.61424338 -39.18359375 68.61424338 -39.18359375 66.32421875 C-37.34765625 65.1328125 -37.34765625 65.1328125 -34.80859375 63.76171875 C-25.41507379 58.26664262 -17.7003171 51.39101176 -13.18359375 41.32421875 C-12.79752383 39.66897287 -12.44852629 38.00311709 -12.18359375 36.32421875 C-13.17359375 36.42734375 -14.16359375 36.53046875 -15.18359375 36.63671875 C-20.11213308 36.61672468 -23.49567059 34.44415375 -27.18359375 31.32421875 C-31.83161939 25.86278863 -31.79018876 20.61590851 -31.56640625 13.57421875 C-30.90512042 7.96003698 -28.25810764 5.19228812 -24.24609375 1.57421875 C-16.82746163 -3.87620485 -8.1289843 -4.6803243 0 0 Z " fill="#C5F616" transform="translate(324.18359375,163.67578125)"/>
</svg>
